<svg width="1200" height="380" viewBox="0 0 1200 380" fill="none" xmlns="http://www.w3.org/2000/svg">
  <defs>
    <linearGradient id="bg" x1="0" y1="0" x2="1200" y2="380" gradientUnits="userSpaceOnUse">
      <stop offset="0" stop-color="#070A12"/>
      <stop offset="0.52" stop-color="#0D1117"/>
      <stop offset="1" stop-color="#111827"/>
    </linearGradient>
    <radialGradient id="glowOrange" cx="0" cy="0" r="1" gradientUnits="userSpaceOnUse" gradientTransform="translate(935 80) rotate(119.4) scale(260 360)">
      <stop stop-color="#F97316" stop-opacity="0.62"/>
      <stop offset="1" stop-color="#F97316" stop-opacity="0"/>
    </radialGradient>
    <radialGradient id="glowBlue" cx="0" cy="0" r="1" gradientUnits="userSpaceOnUse" gradientTransform="translate(170 310) rotate(-24.8) scale(330 230)">
      <stop stop-color="#2563EB" stop-opacity="0.42"/>
      <stop offset="1" stop-color="#2563EB" stop-opacity="0"/>
    </radialGradient>
    <filter id="softShadow" x="140" y="50" width="920" height="290" filterUnits="userSpaceOnUse" color-interpolation-filters="sRGB">
      <feDropShadow dx="0" dy="26" stdDeviation="28" flood-color="#000000" flood-opacity="0.42"/>
    </filter>
  </defs>

  <rect width="1200" height="380" rx="30" fill="url(#bg)"/>
  <rect width="1200" height="380" rx="30" fill="url(#glowOrange)"/>
  <rect width="1200" height="380" rx="30" fill="url(#glowBlue)"/>

  <g opacity="0.26">
    <path d="M64 74H1136" stroke="#263244"/>
    <path d="M64 126H1136" stroke="#263244"/>
    <path d="M64 178H1136" stroke="#263244"/>
    <path d="M64 230H1136" stroke="#263244"/>
    <path d="M64 282H1136" stroke="#263244"/>
    <path d="M168 44V334" stroke="#263244"/>
    <path d="M324 44V334" stroke="#263244"/>
    <path d="M480 44V334" stroke="#263244"/>
    <path d="M636 44V334" stroke="#263244"/>
    <path d="M792 44V334" stroke="#263244"/>
    <path d="M948 44V334" stroke="#263244"/>
  </g>

  <g filter="url(#softShadow)">
    <rect x="172" y="68" width="856" height="244" rx="22" fill="#0B1020" stroke="#243042"/>
    <rect x="172" y="68" width="856" height="52" rx="22" fill="#111827"/>
    <path d="M172 104H1028" stroke="#243042"/>
    <circle cx="208" cy="94" r="8" fill="#FF5F57"/>
    <circle cx="236" cy="94" r="8" fill="#FFBD2E"/>
    <circle cx="264" cy="94" r="8" fill="#28C840"/>
    <text x="600" y="99" text-anchor="middle" fill="#94A3B8" font-family="Consolas, 'SFMono-Regular', monospace" font-size="15">emanueldssss / Java training room</text>

    <text x="214" y="150" fill="#F97316" font-family="Consolas, 'SFMono-Regular', monospace" font-size="22" font-weight="700">$ javac Main.java &amp;&amp; java Main</text>
    <text x="214" y="188" fill="#E5E7EB" font-family="Consolas, 'SFMono-Regular', monospace" font-size="28" font-weight="700">System.out.println(&quot;Hello, GitHub&quot;);</text>
    <text x="214" y="228" fill="#A7F3D0" font-family="Consolas, 'SFMono-Regular', monospace" font-size="22">Java beginner | HTML &amp; CSS | Python</text>
    <text x="214" y="266" fill="#94A3B8" font-family="Consolas, 'SFMono-Regular', monospace" font-size="18">computacao, anime e projetos feitos com carinho.</text>

    <rect x="782" y="140" width="178" height="124" rx="20" fill="#101827" stroke="#3A2B17"/>
    <circle cx="871" cy="180" r="35" fill="#F97316" fill-opacity="0.18" stroke="#F97316"/>
    <text x="871" y="191" text-anchor="middle" fill="#F97316" font-family="Consolas, 'SFMono-Regular', monospace" font-size="34" font-weight="800">J</text>
    <text x="871" y="226" text-anchor="middle" fill="#CBD5E1" font-family="Consolas, 'SFMono-Regular', monospace" font-size="15">GOKU MODE</text>
    <text x="871" y="248" text-anchor="middle" fill="#94A3B8" font-family="Consolas, 'SFMono-Regular', monospace" font-size="12">train &gt; code &gt; level up</text>
  </g>

  <path d="M995 68C1044 83 1080 119 1091 168" stroke="#F97316" stroke-opacity="0.46" stroke-width="2"/>
  <path d="M148 282C111 256 91 220 88 176" stroke="#2563EB" stroke-opacity="0.48" stroke-width="2"/>
</svg>
